# xmcd
#
# Track frame offsets:
#	150
#	20809
#	36252
#	53989
#	71399
#	91863
#	106682
#	124831
#	136103
#	158787
#	175081
#	193643
#	211907
#	237248
#	248115
#
# Disc length: 3501 seconds
#
# Revision: 0
# Processed by: cddbd v1.5.2PL0 Copyright (c) Steve Scherf et al.
# Submitted via: dBpowerAMP V4.0
#
DISCID=c50dab0f
DTITLE=Marcos Urdiales - Romantico
DYEAR=1900
DGENRE=
TTITLE0=tu eras
TTITLE1=mi nina bonita
TTITLE2=nostalgia
TTITLE3=barco velero
TTITLE4=quien
TTITLE5=piensa en mi
TTITLE6=recuerdos de una tarde
TTITLE7=la gloria eres tu
TTITLE8=a mi manera
TTITLE9=tarde
TTITLE10=noche negra
TTITLE11=en un rincon del alma
TTITLE12=pequena pintora
TTITLE13=me dijiste adios
TTITLE14=confesion
EXTD=
EXTT0=
EXTT1=
EXTT2=
EXTT3=
EXTT4=
EXTT5=
EXTT6=
EXTT7=
EXTT8=
EXTT9=
EXTT10=
EXTT11=
EXTT12=
EXTT13=
EXTT14=
PLAYORDER=
